<svg width="51" height="72" viewBox="0 0 51 72" fill="none" xmlns="http://www.w3.org/2000/svg">
<path d="M50.6406 49.3594C50.4844 49.8906 50.3438 50.2656 50.2188 50.4844C48.3438 54.6094 46.3281 57.75 44.1719 59.9062C42.5469 61.5625 41.25 62.8438 40.2812 63.75C39.3125 64.6562 38.6562 65.2188 38.3125 65.4375L27.8594 72C26.0781 71.5312 23.9844 70.7031 21.5781 69.5156C19.2031 68.2969 16.8125 66.75 14.4062 64.875C12.0312 63 9.82812 60.8125 7.79688 58.3125C5.76562 55.8125 4.21875 53.0312 3.15625 49.9688C2.34375 47.5938 1.70312 45.3281 1.23438 43.1719C0.796875 40.9844 0.59375 38.7969 0.625 36.6094C0.625 33.9219 0.984375 31.1719 1.70312 28.3594C2.45312 25.5469 3.46875 22.8438 4.75 20.25C6.0625 17.6563 7.60938 15.2812 9.39062 13.125C11.1719 10.9375 13.1094 9.125 15.2031 7.6875L25.6094 0.984375C26.4844 1.23437 27.5469 1.60937 28.7969 2.10938C30.0469 2.60938 31.4375 3.28125 32.9688 4.125C34.5 4.96875 36.1094 6 37.7969 7.21875C39.5156 8.4375 41.25 9.89062 43 11.5781C43.9688 12.5781 44.8594 13.6094 45.6719 14.6719L36.3438 19.2656C34.9375 17.4844 33.5 15.9688 32.0312 14.7188C30.5625 13.4375 29 12.3594 27.3438 11.4844C25.6875 10.5781 23.9062 9.84375 22 9.28125C20.125 8.6875 18.0469 8.1875 15.7656 7.78125L15.7188 7.82812C13.0312 9.39062 10.9844 13.5313 9.57812 20.25C8.64062 24.75 8.17188 28.7969 8.17188 32.3906C8.17188 34.3594 8.375 36.4531 8.78125 38.6719C9.1875 40.8906 9.84375 43.1094 10.75 45.3281C11.6875 47.5156 12.9062 49.6719 14.4062 51.7969C15.9062 53.8906 17.75 55.8281 19.9375 57.6094C22.125 59.3906 24.6875 60.9531 27.625 62.2969C30.5625 63.6406 33.9375 64.6562 37.75 65.3438C40.6562 62.7812 42.1094 58.75 42.1094 53.25C42.1094 50.7188 41.7969 48.3438 41.1719 46.125L50.6406 49.3594Z" fill="#FFC700"/>
</svg>
