<?xml version="1.0" encoding="iso-8859-1"?>
<!-- Generator: Adobe Illustrator 24.1.2, SVG Export Plug-In . SVG Version: 6.00 Build 0)  -->
<svg version="1.1" baseProfile="basic" id="Layer_1"
	 xmlns="http://www.w3.org/2000/svg" xmlns:xlink="http://www.w3.org/1999/xlink" x="0px" y="0px" viewBox="0 0 48 48"
	 xml:space="preserve">
<polygon style="fill:#1565C0;" points="37.504,31.868 30.734,28 22,28 22,26 31.266,26 38.496,30.132 "/>
<polygon style="fill:#1565C0;" points="27.535,16 22,16 22,14 26.465,14 30.168,8.445 31.832,9.555 "/>
<polygon style="fill:#1565C0;" points="30.168,39.555 26.465,34 22,34 22,32 27.535,32 31.832,38.445 "/>
<circle style="fill:#2196F3;" cx="31" cy="9" r="3"/>
<circle style="fill:#2196F3;" cx="38" cy="31" r="3"/>
<polygon style="fill:#1565C0;" points="31.266,22 22,22 22,20 30.734,20 37.504,16.132 38.496,17.868 "/>
<circle style="fill:#2196F3;" cx="38" cy="17" r="3"/>
<circle style="fill:#2196F3;" cx="31" cy="39" r="3"/>
<path style="fill:#F8BBD0;" d="M5,30c0,14,15,14,15,14c1.7,0,3-1.3,3-3V7c0-1.7-1-3-3-3C16,4,5,12,5,30z"/>
<path style="fill:#FF80AB;" d="M17.1,41.8c-2.5,0-4-0.7-5.8-2c-2.1-1.5-5.5-4.5-4-7C7.7,32.3,8.1,32,8.7,32c1.2-0.1,2.2,1,2.9,1.8
	c0.2,0.2,0.3,0.3,0.4,0.4c0.2,0.2,0.4,0.3,0.5,0.3c0,0,0-0.1,0.1-0.2c0,0-0.2-0.4-0.3-0.6C12,33,11.5,32,12.1,31.1
	c0.3-0.5,0.9-0.8,1.5-0.9s1.2,0.1,1.7,0.5c0.6,0.6,1,1.3,1.3,1.9c0.3,0.6,0.5,1.1,0.9,1.4c0.3,0.2,0.9,0.3,1.4,0.2
	c0.1,0,0.5-0.1,0.6-0.4c0.3-0.6,0.2-2-0.3-3c-0.2-0.4-0.6-1-1.2-1.1c-0.9-0.2-1.8-0.2-2.8-0.1c-0.4,0-0.8,0-1.2,0s-0.8,0.1-1.3,0.1
	C11.4,29.8,9.9,30,8.6,29c-1.9-1.4-1.8-3.4-1.8-5c0-1.5,0.5-2.8,1.5-3.5c0.8-0.7,1.8-0.9,3-0.7c1.8,0.3,2.6,1.8,3.2,3
	c0.3,0.6,0.6,1.2,1,1.5c0.3,0.3,0.7,0.5,1.2,0.4c1-0.1,2.1-0.5,2.3-1c0-0.1,0.1-0.2-0.1-0.7c-0.1-0.2-0.6-0.4-1-0.5
	c-0.9-0.3-2.4-0.8-2.3-2.6c0-0.8,0.4-1.3,0.7-1.5c0.8-0.6,2-0.3,2.8,0c0.2,0.1,0.3,0.1,0.5,0.1s0.3,0,0.4,0c0.1-0.1,0.1-0.3,0-0.7
	c-0.2-0.4-0.7-0.7-1-0.8c-1.2-0.4-2.7-0.2-3.6,0.6c-0.1,0.1-0.2,0.2-0.3,0.3c-0.6,0.6-1.4,1.4-2.4,1.2c-0.4-0.1-1-0.3-1.5-1
	c-0.6-0.9-1-2.4-0.9-3.5c0.1-2.1,1.8-4.3,3.8-4.9c1.7-0.5,2.9,0.6,3.7,1.3c0.6,0.6,1.1,1,1.7,1.1c0.2,0,0.4,0,0.5,0
	c-0.1-0.2-0.4-0.6-1.4-1.3c-0.1-0.1-0.2-0.2-0.4-0.2c-0.6-0.4-2-1.2-1.2-2.9c0.6-1.3,1.7-1.3,2.4-1.3c0.5,0,1,0.4,1,1s-0.4,1-1,1
	s-0.6,0-0.7,0.2v0.1C18.8,8.8,19,8.9,19.2,9s0.3,0.2,0.5,0.3c0.8,0.5,2.2,1.5,2.3,2.8c0.1,0.6-0.1,1.1-0.5,1.5
	c-0.6,0.7-1.6,0.7-2,0.7c-1.3,0-2.3-0.9-3-1.6c-0.8-0.8-1.2-1.1-1.8-0.9c-1.2,0.3-2.3,1.8-2.4,3.1c0,0.7,0.2,1.8,0.6,2.3l0.1,0.1
	c0.2-0.1,0.6-0.5,0.8-0.7c0.1-0.1,0.3-0.2,0.4-0.4c1.4-1.2,3.7-1.6,5.5-0.9c1.1,0.4,1.9,1.1,2.3,2c0.4,1,0.3,2-0.3,2.7
	c-0.3,0.4-1,0.9-2.2,0.7c-0.2,0-0.4-0.1-0.7-0.2c-0.2-0.1-0.7-0.2-1-0.2c0,0.2,0.2,0.3,1,0.6c0.7,0.3,1.6,0.6,2,1.4
	c0.7,1.1,0.5,2,0.2,2.6c-0.7,1.3-2.5,1.9-3.9,2c-1.1,0.1-2-0.2-2.7-1c-0.6-0.6-1-1.3-1.4-2.1c-0.6-1.2-1-1.9-1.7-2
	c-0.6-0.1-1,0-1.4,0.3c-0.5,0.4-0.7,1.1-0.8,2c0,1.6,0,2.6,1.1,3.4c0.7,0.5,1.6,0.4,2.6,0.3c0.5-0.1,1-0.1,1.6-0.1
	c0.4,0,0.8,0,1.2,0c1.1,0,2.2-0.1,3.3,0.2c1.1,0.3,1.9,1,2.5,2.2c0.7,1.5,0.9,3.4,0.3,4.7c-0.3,0.7-1,1.3-1.9,1.5
	c-1.1,0.3-2.4,0.1-3.2-0.5c-0.7-0.6-1.1-1.4-1.5-2.1c-0.3-0.5-0.5-1-0.8-1.3h-0.1c0.1,0.2,0.2,0.5,0.3,0.7c0.3,0.6,0.6,1.3,0.4,2
	c-0.3,1.1-1,1.5-1.5,1.6c-0.8,0.2-1.6,0-2.3-0.7c-0.1-0.1-0.3-0.3-0.6-0.6C9.9,34.9,9.3,34.3,9,34c-0.1,0.7,1,2.3,3.5,4.1
	c1.6,1.2,2.7,1.7,4.9,1.6c0.3,0,0.7-0.2,0.9-0.4c0.1-0.1,0.1-0.2,0.1-0.3s0-0.1-0.1-0.2c-0.4-0.3-1.4-0.4-2-0.3
	c-0.5,0.1-1.1-0.3-1.2-0.8c-0.1-0.5,0.3-1.1,0.8-1.2c1-0.2,2.6-0.1,3.6,0.6c0.5,0.4,0.8,0.9,0.9,1.5c0.1,0.7-0.1,1.3-0.5,1.8
	c-0.5,0.6-1.5,1.1-2.4,1.1C17.4,41.8,17.3,41.8,17.1,41.8z"/>
</svg>